<?xml version="1.0" encoding="UTF-8"?>
<svg xmlns="http://www.w3.org/2000/svg" xmlns:xlink="http://www.w3.org/1999/xlink" width="1129pt" height="1127pt" viewBox="0 0 1129 1127" version="1.1">
<g id="surface207">
<path style="fill-rule:nonzero;fill:rgb(66.497803%,77.897644%,94.998169%);fill-opacity:1;stroke-width:1;stroke-linecap:square;stroke-linejoin:miter;stroke:rgb(66.497803%,77.897644%,94.998169%);stroke-opacity:1;stroke-miterlimit:3.239307;" d="M 22.570313 1105.125 L 62.699219 1105.125 L 62.699219 1064.996094 L 22.570313 1064.996094 Z M 22.570313 1105.125 "/>
<path style="fill-rule:nonzero;fill:rgb(66.497803%,77.897644%,94.998169%);fill-opacity:1;stroke-width:1;stroke-linecap:square;stroke-linejoin:miter;stroke:rgb(66.497803%,77.897644%,94.998169%);stroke-opacity:1;stroke-miterlimit:3.239307;" d="M 22.570313 1024.867188 L 62.699219 1024.867188 L 62.699219 984.742188 L 22.570313 984.742188 Z M 22.570313 1024.867188 "/>
<path style="fill-rule:nonzero;fill:rgb(66.497803%,77.897644%,94.998169%);fill-opacity:1;stroke-width:1;stroke-linecap:square;stroke-linejoin:miter;stroke:rgb(66.497803%,77.897644%,94.998169%);stroke-opacity:1;stroke-miterlimit:3.239307;" d="M 22.570313 864.355469 L 62.699219 864.355469 L 62.699219 824.230469 L 22.570313 824.230469 Z M 22.570313 864.355469 "/>
<path style="fill-rule:nonzero;fill:rgb(66.497803%,77.897644%,94.998169%);fill-opacity:1;stroke-width:1;stroke-linecap:square;stroke-linejoin:miter;stroke:rgb(66.497803%,77.897644%,94.998169%);stroke-opacity:1;stroke-miterlimit:3.239307;" d="M 22.570313 784.101563 L 62.699219 784.101563 L 62.699219 743.972656 L 22.570313 743.972656 Z M 22.570313 784.101563 "/>
<path style="fill-rule:nonzero;fill:rgb(66.497803%,77.897644%,94.998169%);fill-opacity:1;stroke-width:1;stroke-linecap:square;stroke-linejoin:miter;stroke:rgb(66.497803%,77.897644%,94.998169%);stroke-opacity:1;stroke-miterlimit:3.239307;" d="M 22.570313 382.820313 L 62.699219 382.820313 L 62.699219 342.691406 L 22.570313 342.691406 Z M 22.570313 382.820313 "/>
<path style="fill-rule:nonzero;fill:rgb(66.497803%,77.897644%,94.998169%);fill-opacity:1;stroke-width:1;stroke-linecap:square;stroke-linejoin:miter;stroke:rgb(66.497803%,77.897644%,94.998169%);stroke-opacity:1;stroke-miterlimit:3.239307;" d="M 22.570313 302.566406 L 62.699219 302.566406 L 62.699219 262.4375 L 22.570313 262.4375 Z M 22.570313 302.566406 "/>
<path style="fill-rule:nonzero;fill:rgb(66.497803%,77.897644%,94.998169%);fill-opacity:1;stroke-width:1;stroke-linecap:square;stroke-linejoin:miter;stroke:rgb(66.497803%,77.897644%,94.998169%);stroke-opacity:1;stroke-miterlimit:3.239307;" d="M 22.570313 142.054688 L 62.699219 142.054688 L 62.699219 101.925781 L 22.570313 101.925781 Z M 22.570313 142.054688 "/>
<path style="fill-rule:nonzero;fill:rgb(66.497803%,77.897644%,94.998169%);fill-opacity:1;stroke-width:1;stroke-linecap:square;stroke-linejoin:miter;stroke:rgb(66.497803%,77.897644%,94.998169%);stroke-opacity:1;stroke-miterlimit:3.239307;" d="M 22.570313 61.796875 L 62.699219 61.796875 L 62.699219 21.667969 L 22.570313 21.667969 Z M 22.570313 61.796875 "/>
<path style="fill-rule:nonzero;fill:rgb(66.497803%,77.897644%,94.998169%);fill-opacity:1;stroke-width:1;stroke-linecap:square;stroke-linejoin:miter;stroke:rgb(66.497803%,77.897644%,94.998169%);stroke-opacity:1;stroke-miterlimit:3.239307;" d="M 102.828125 1105.125 L 142.957031 1105.125 L 142.957031 1064.996094 L 102.828125 1064.996094 Z M 102.828125 1105.125 "/>
<path style="fill-rule:nonzero;fill:rgb(66.497803%,77.897644%,94.998169%);fill-opacity:1;stroke-width:1;stroke-linecap:square;stroke-linejoin:miter;stroke:rgb(66.497803%,77.897644%,94.998169%);stroke-opacity:1;stroke-miterlimit:3.239307;" d="M 102.828125 1024.867188 L 142.957031 1024.867188 L 142.957031 984.742188 L 102.828125 984.742188 Z M 102.828125 1024.867188 "/>
<path style="fill-rule:nonzero;fill:rgb(66.497803%,77.897644%,94.998169%);fill-opacity:1;stroke-width:1;stroke-linecap:square;stroke-linejoin:miter;stroke:rgb(66.497803%,77.897644%,94.998169%);stroke-opacity:1;stroke-miterlimit:3.239307;" d="M 102.828125 864.355469 L 142.957031 864.355469 L 142.957031 824.230469 L 102.828125 824.230469 Z M 102.828125 864.355469 "/>
<path style="fill-rule:nonzero;fill:rgb(66.497803%,77.897644%,94.998169%);fill-opacity:1;stroke-width:1;stroke-linecap:square;stroke-linejoin:miter;stroke:rgb(66.497803%,77.897644%,94.998169%);stroke-opacity:1;stroke-miterlimit:3.239307;" d="M 102.828125 784.101563 L 142.957031 784.101563 L 142.957031 743.972656 L 102.828125 743.972656 Z M 102.828125 784.101563 "/>
<path style="fill-rule:nonzero;fill:rgb(66.497803%,77.897644%,94.998169%);fill-opacity:1;stroke-width:1;stroke-linecap:square;stroke-linejoin:miter;stroke:rgb(66.497803%,77.897644%,94.998169%);stroke-opacity:1;stroke-miterlimit:3.239307;" d="M 102.828125 382.820313 L 142.957031 382.820313 L 142.957031 342.691406 L 102.828125 342.691406 Z M 102.828125 382.820313 "/>
<path style="fill-rule:nonzero;fill:rgb(66.497803%,77.897644%,94.998169%);fill-opacity:1;stroke-width:1;stroke-linecap:square;stroke-linejoin:miter;stroke:rgb(66.497803%,77.897644%,94.998169%);stroke-opacity:1;stroke-miterlimit:3.239307;" d="M 102.828125 302.566406 L 142.957031 302.566406 L 142.957031 262.4375 L 102.828125 262.4375 Z M 102.828125 302.566406 "/>
<path style="fill-rule:nonzero;fill:rgb(66.497803%,77.897644%,94.998169%);fill-opacity:1;stroke-width:1;stroke-linecap:square;stroke-linejoin:miter;stroke:rgb(66.497803%,77.897644%,94.998169%);stroke-opacity:1;stroke-miterlimit:3.239307;" d="M 102.828125 142.054688 L 142.957031 142.054688 L 142.957031 101.925781 L 102.828125 101.925781 Z M 102.828125 142.054688 "/>
<path style="fill-rule:nonzero;fill:rgb(66.497803%,77.897644%,94.998169%);fill-opacity:1;stroke-width:1;stroke-linecap:square;stroke-linejoin:miter;stroke:rgb(66.497803%,77.897644%,94.998169%);stroke-opacity:1;stroke-miterlimit:3.239307;" d="M 102.828125 61.796875 L 142.957031 61.796875 L 142.957031 21.667969 L 102.828125 21.667969 Z M 102.828125 61.796875 "/>
<path style="fill-rule:nonzero;fill:rgb(66.497803%,77.897644%,94.998169%);fill-opacity:1;stroke-width:1;stroke-linecap:square;stroke-linejoin:miter;stroke:rgb(66.497803%,77.897644%,94.998169%);stroke-opacity:1;stroke-miterlimit:3.239307;" d="M 263.339844 1105.125 L 303.46875 1105.125 L 303.46875 1064.996094 L 263.339844 1064.996094 Z M 263.339844 1105.125 "/>
<path style="fill-rule:nonzero;fill:rgb(66.497803%,77.897644%,94.998169%);fill-opacity:1;stroke-width:1;stroke-linecap:square;stroke-linejoin:miter;stroke:rgb(66.497803%,77.897644%,94.998169%);stroke-opacity:1;stroke-miterlimit:3.239307;" d="M 263.339844 1024.867188 L 303.46875 1024.867188 L 303.46875 984.742188 L 263.339844 984.742188 Z M 263.339844 1024.867188 "/>
<path style="fill-rule:nonzero;fill:rgb(66.497803%,77.897644%,94.998169%);fill-opacity:1;stroke-width:1;stroke-linecap:square;stroke-linejoin:miter;stroke:rgb(66.497803%,77.897644%,94.998169%);stroke-opacity:1;stroke-miterlimit:3.239307;" d="M 263.339844 864.355469 L 303.46875 864.355469 L 303.46875 824.230469 L 263.339844 824.230469 Z M 263.339844 864.355469 "/>
<path style="fill-rule:nonzero;fill:rgb(66.497803%,77.897644%,94.998169%);fill-opacity:1;stroke-width:1;stroke-linecap:square;stroke-linejoin:miter;stroke:rgb(66.497803%,77.897644%,94.998169%);stroke-opacity:1;stroke-miterlimit:3.239307;" d="M 263.339844 784.101563 L 303.46875 784.101563 L 303.46875 743.972656 L 263.339844 743.972656 Z M 263.339844 784.101563 "/>
<path style="fill-rule:nonzero;fill:rgb(66.497803%,77.897644%,94.998169%);fill-opacity:1;stroke-width:1;stroke-linecap:square;stroke-linejoin:miter;stroke:rgb(66.497803%,77.897644%,94.998169%);stroke-opacity:1;stroke-miterlimit:3.239307;" d="M 263.339844 382.820313 L 303.46875 382.820313 L 303.46875 342.691406 L 263.339844 342.691406 Z M 263.339844 382.820313 "/>
<path style="fill-rule:nonzero;fill:rgb(66.497803%,77.897644%,94.998169%);fill-opacity:1;stroke-width:1;stroke-linecap:square;stroke-linejoin:miter;stroke:rgb(66.497803%,77.897644%,94.998169%);stroke-opacity:1;stroke-miterlimit:3.239307;" d="M 263.339844 302.566406 L 303.46875 302.566406 L 303.46875 262.4375 L 263.339844 262.4375 Z M 263.339844 302.566406 "/>
<path style="fill-rule:nonzero;fill:rgb(66.497803%,77.897644%,94.998169%);fill-opacity:1;stroke-width:1;stroke-linecap:square;stroke-linejoin:miter;stroke:rgb(66.497803%,77.897644%,94.998169%);stroke-opacity:1;stroke-miterlimit:3.239307;" d="M 263.339844 142.054688 L 303.46875 142.054688 L 303.46875 101.925781 L 263.339844 101.925781 Z M 263.339844 142.054688 "/>
<path style="fill-rule:nonzero;fill:rgb(66.497803%,77.897644%,94.998169%);fill-opacity:1;stroke-width:1;stroke-linecap:square;stroke-linejoin:miter;stroke:rgb(66.497803%,77.897644%,94.998169%);stroke-opacity:1;stroke-miterlimit:3.239307;" d="M 263.339844 61.796875 L 303.46875 61.796875 L 303.46875 21.667969 L 263.339844 21.667969 Z M 263.339844 61.796875 "/>
<path style="fill-rule:nonzero;fill:rgb(66.497803%,77.897644%,94.998169%);fill-opacity:1;stroke-width:1;stroke-linecap:square;stroke-linejoin:miter;stroke:rgb(66.497803%,77.897644%,94.998169%);stroke-opacity:1;stroke-miterlimit:3.239307;" d="M 343.597656 1105.125 L 383.722656 1105.125 L 383.722656 1064.996094 L 343.597656 1064.996094 Z M 343.597656 1105.125 "/>
<path style="fill-rule:nonzero;fill:rgb(66.497803%,77.897644%,94.998169%);fill-opacity:1;stroke-width:1;stroke-linecap:square;stroke-linejoin:miter;stroke:rgb(66.497803%,77.897644%,94.998169%);stroke-opacity:1;stroke-miterlimit:3.239307;" d="M 343.597656 1024.867188 L 383.722656 1024.867188 L 383.722656 984.742188 L 343.597656 984.742188 Z M 343.597656 1024.867188 "/>
<path style="fill-rule:nonzero;fill:rgb(66.497803%,77.897644%,94.998169%);fill-opacity:1;stroke-width:1;stroke-linecap:square;stroke-linejoin:miter;stroke:rgb(66.497803%,77.897644%,94.998169%);stroke-opacity:1;stroke-miterlimit:3.239307;" d="M 343.597656 864.355469 L 383.722656 864.355469 L 383.722656 824.230469 L 343.597656 824.230469 Z M 343.597656 864.355469 "/>
<path style="fill-rule:nonzero;fill:rgb(66.497803%,77.897644%,94.998169%);fill-opacity:1;stroke-width:1;stroke-linecap:square;stroke-linejoin:miter;stroke:rgb(66.497803%,77.897644%,94.998169%);stroke-opacity:1;stroke-miterlimit:3.239307;" d="M 343.597656 784.101563 L 383.722656 784.101563 L 383.722656 743.972656 L 343.597656 743.972656 Z M 343.597656 784.101563 "/>
<path style="fill-rule:nonzero;fill:rgb(66.497803%,77.897644%,94.998169%);fill-opacity:1;stroke-width:1;stroke-linecap:square;stroke-linejoin:miter;stroke:rgb(66.497803%,77.897644%,94.998169%);stroke-opacity:1;stroke-miterlimit:3.239307;" d="M 343.597656 382.820313 L 383.722656 382.820313 L 383.722656 342.691406 L 343.597656 342.691406 Z M 343.597656 382.820313 "/>
<path style="fill-rule:nonzero;fill:rgb(66.497803%,77.897644%,94.998169%);fill-opacity:1;stroke-width:1;stroke-linecap:square;stroke-linejoin:miter;stroke:rgb(66.497803%,77.897644%,94.998169%);stroke-opacity:1;stroke-miterlimit:3.239307;" d="M 343.597656 302.566406 L 383.722656 302.566406 L 383.722656 262.4375 L 343.597656 262.4375 Z M 343.597656 302.566406 "/>
<path style="fill-rule:nonzero;fill:rgb(66.497803%,77.897644%,94.998169%);fill-opacity:1;stroke-width:1;stroke-linecap:square;stroke-linejoin:miter;stroke:rgb(66.497803%,77.897644%,94.998169%);stroke-opacity:1;stroke-miterlimit:3.239307;" d="M 343.597656 142.054688 L 383.722656 142.054688 L 383.722656 101.925781 L 343.597656 101.925781 Z M 343.597656 142.054688 "/>
<path style="fill-rule:nonzero;fill:rgb(66.497803%,77.897644%,94.998169%);fill-opacity:1;stroke-width:1;stroke-linecap:square;stroke-linejoin:miter;stroke:rgb(66.497803%,77.897644%,94.998169%);stroke-opacity:1;stroke-miterlimit:3.239307;" d="M 343.597656 61.796875 L 383.722656 61.796875 L 383.722656 21.667969 L 343.597656 21.667969 Z M 343.597656 61.796875 "/>
<path style="fill-rule:nonzero;fill:rgb(66.497803%,77.897644%,94.998169%);fill-opacity:1;stroke-width:1;stroke-linecap:square;stroke-linejoin:miter;stroke:rgb(66.497803%,77.897644%,94.998169%);stroke-opacity:1;stroke-miterlimit:3.239307;" d="M 744.875 1105.125 L 785.003906 1105.125 L 785.003906 1064.996094 L 744.875 1064.996094 Z M 744.875 1105.125 "/>
<path style="fill-rule:nonzero;fill:rgb(66.497803%,77.897644%,94.998169%);fill-opacity:1;stroke-width:1;stroke-linecap:square;stroke-linejoin:miter;stroke:rgb(66.497803%,77.897644%,94.998169%);stroke-opacity:1;stroke-miterlimit:3.239307;" d="M 744.875 1024.867188 L 785.003906 1024.867188 L 785.003906 984.742188 L 744.875 984.742188 Z M 744.875 1024.867188 "/>
<path style="fill-rule:nonzero;fill:rgb(66.497803%,77.897644%,94.998169%);fill-opacity:1;stroke-width:1;stroke-linecap:square;stroke-linejoin:miter;stroke:rgb(66.497803%,77.897644%,94.998169%);stroke-opacity:1;stroke-miterlimit:3.239307;" d="M 744.875 864.355469 L 785.003906 864.355469 L 785.003906 824.230469 L 744.875 824.230469 Z M 744.875 864.355469 "/>
<path style="fill-rule:nonzero;fill:rgb(66.497803%,77.897644%,94.998169%);fill-opacity:1;stroke-width:1;stroke-linecap:square;stroke-linejoin:miter;stroke:rgb(66.497803%,77.897644%,94.998169%);stroke-opacity:1;stroke-miterlimit:3.239307;" d="M 744.875 784.101563 L 785.003906 784.101563 L 785.003906 743.972656 L 744.875 743.972656 Z M 744.875 784.101563 "/>
<path style="fill-rule:nonzero;fill:rgb(66.497803%,77.897644%,94.998169%);fill-opacity:1;stroke-width:1;stroke-linecap:square;stroke-linejoin:miter;stroke:rgb(66.497803%,77.897644%,94.998169%);stroke-opacity:1;stroke-miterlimit:3.239307;" d="M 744.875 382.820313 L 785.003906 382.820313 L 785.003906 342.691406 L 744.875 342.691406 Z M 744.875 382.820313 "/>
<path style="fill-rule:nonzero;fill:rgb(66.497803%,77.897644%,94.998169%);fill-opacity:1;stroke-width:1;stroke-linecap:square;stroke-linejoin:miter;stroke:rgb(66.497803%,77.897644%,94.998169%);stroke-opacity:1;stroke-miterlimit:3.239307;" d="M 744.875 302.566406 L 785.003906 302.566406 L 785.003906 262.4375 L 744.875 262.4375 Z M 744.875 302.566406 "/>
<path style="fill-rule:nonzero;fill:rgb(66.497803%,77.897644%,94.998169%);fill-opacity:1;stroke-width:1;stroke-linecap:square;stroke-linejoin:miter;stroke:rgb(66.497803%,77.897644%,94.998169%);stroke-opacity:1;stroke-miterlimit:3.239307;" d="M 744.875 142.054688 L 785.003906 142.054688 L 785.003906 101.925781 L 744.875 101.925781 Z M 744.875 142.054688 "/>
<path style="fill-rule:nonzero;fill:rgb(66.497803%,77.897644%,94.998169%);fill-opacity:1;stroke-width:1;stroke-linecap:square;stroke-linejoin:miter;stroke:rgb(66.497803%,77.897644%,94.998169%);stroke-opacity:1;stroke-miterlimit:3.239307;" d="M 744.875 61.796875 L 785.003906 61.796875 L 785.003906 21.667969 L 744.875 21.667969 Z M 744.875 61.796875 "/>
<path style="fill-rule:nonzero;fill:rgb(66.497803%,77.897644%,94.998169%);fill-opacity:1;stroke-width:1;stroke-linecap:square;stroke-linejoin:miter;stroke:rgb(66.497803%,77.897644%,94.998169%);stroke-opacity:1;stroke-miterlimit:3.239307;" d="M 825.132813 1105.125 L 865.261719 1105.125 L 865.261719 1064.996094 L 825.132813 1064.996094 Z M 825.132813 1105.125 "/>
<path style="fill-rule:nonzero;fill:rgb(66.497803%,77.897644%,94.998169%);fill-opacity:1;stroke-width:1;stroke-linecap:square;stroke-linejoin:miter;stroke:rgb(66.497803%,77.897644%,94.998169%);stroke-opacity:1;stroke-miterlimit:3.239307;" d="M 825.132813 1024.867188 L 865.261719 1024.867188 L 865.261719 984.742188 L 825.132813 984.742188 Z M 825.132813 1024.867188 "/>
<path style="fill-rule:nonzero;fill:rgb(66.497803%,77.897644%,94.998169%);fill-opacity:1;stroke-width:1;stroke-linecap:square;stroke-linejoin:miter;stroke:rgb(66.497803%,77.897644%,94.998169%);stroke-opacity:1;stroke-miterlimit:3.239307;" d="M 825.132813 864.355469 L 865.261719 864.355469 L 865.261719 824.230469 L 825.132813 824.230469 Z M 825.132813 864.355469 "/>
<path style="fill-rule:nonzero;fill:rgb(66.497803%,77.897644%,94.998169%);fill-opacity:1;stroke-width:1;stroke-linecap:square;stroke-linejoin:miter;stroke:rgb(66.497803%,77.897644%,94.998169%);stroke-opacity:1;stroke-miterlimit:3.239307;" d="M 825.132813 784.101563 L 865.261719 784.101563 L 865.261719 743.972656 L 825.132813 743.972656 Z M 825.132813 784.101563 "/>
<path style="fill-rule:nonzero;fill:rgb(66.497803%,77.897644%,94.998169%);fill-opacity:1;stroke-width:1;stroke-linecap:square;stroke-linejoin:miter;stroke:rgb(66.497803%,77.897644%,94.998169%);stroke-opacity:1;stroke-miterlimit:3.239307;" d="M 825.132813 382.820313 L 865.261719 382.820313 L 865.261719 342.691406 L 825.132813 342.691406 Z M 825.132813 382.820313 "/>
<path style="fill-rule:nonzero;fill:rgb(66.497803%,77.897644%,94.998169%);fill-opacity:1;stroke-width:1;stroke-linecap:square;stroke-linejoin:miter;stroke:rgb(66.497803%,77.897644%,94.998169%);stroke-opacity:1;stroke-miterlimit:3.239307;" d="M 825.132813 302.566406 L 865.261719 302.566406 L 865.261719 262.4375 L 825.132813 262.4375 Z M 825.132813 302.566406 "/>
<path style="fill-rule:nonzero;fill:rgb(66.497803%,77.897644%,94.998169%);fill-opacity:1;stroke-width:1;stroke-linecap:square;stroke-linejoin:miter;stroke:rgb(66.497803%,77.897644%,94.998169%);stroke-opacity:1;stroke-miterlimit:3.239307;" d="M 825.132813 142.054688 L 865.261719 142.054688 L 865.261719 101.925781 L 825.132813 101.925781 Z M 825.132813 142.054688 "/>
<path style="fill-rule:nonzero;fill:rgb(66.497803%,77.897644%,94.998169%);fill-opacity:1;stroke-width:1;stroke-linecap:square;stroke-linejoin:miter;stroke:rgb(66.497803%,77.897644%,94.998169%);stroke-opacity:1;stroke-miterlimit:3.239307;" d="M 825.132813 61.796875 L 865.261719 61.796875 L 865.261719 21.667969 L 825.132813 21.667969 Z M 825.132813 61.796875 "/>
<path style="fill-rule:nonzero;fill:rgb(66.497803%,77.897644%,94.998169%);fill-opacity:1;stroke-width:1;stroke-linecap:square;stroke-linejoin:miter;stroke:rgb(66.497803%,77.897644%,94.998169%);stroke-opacity:1;stroke-miterlimit:3.239307;" d="M 985.644531 1105.125 L 1025.773438 1105.125 L 1025.773438 1064.996094 L 985.644531 1064.996094 Z M 985.644531 1105.125 "/>
<path style="fill-rule:nonzero;fill:rgb(66.497803%,77.897644%,94.998169%);fill-opacity:1;stroke-width:1;stroke-linecap:square;stroke-linejoin:miter;stroke:rgb(66.497803%,77.897644%,94.998169%);stroke-opacity:1;stroke-miterlimit:3.239307;" d="M 985.644531 1024.867188 L 1025.773438 1024.867188 L 1025.773438 984.742188 L 985.644531 984.742188 Z M 985.644531 1024.867188 "/>
<path style="fill-rule:nonzero;fill:rgb(66.497803%,77.897644%,94.998169%);fill-opacity:1;stroke-width:1;stroke-linecap:square;stroke-linejoin:miter;stroke:rgb(66.497803%,77.897644%,94.998169%);stroke-opacity:1;stroke-miterlimit:3.239307;" d="M 985.644531 864.355469 L 1025.773438 864.355469 L 1025.773438 824.230469 L 985.644531 824.230469 Z M 985.644531 864.355469 "/>
<path style="fill-rule:nonzero;fill:rgb(66.497803%,77.897644%,94.998169%);fill-opacity:1;stroke-width:1;stroke-linecap:square;stroke-linejoin:miter;stroke:rgb(66.497803%,77.897644%,94.998169%);stroke-opacity:1;stroke-miterlimit:3.239307;" d="M 985.644531 784.101563 L 1025.773438 784.101563 L 1025.773438 743.972656 L 985.644531 743.972656 Z M 985.644531 784.101563 "/>
<path style="fill-rule:nonzero;fill:rgb(66.497803%,77.897644%,94.998169%);fill-opacity:1;stroke-width:1;stroke-linecap:square;stroke-linejoin:miter;stroke:rgb(66.497803%,77.897644%,94.998169%);stroke-opacity:1;stroke-miterlimit:3.239307;" d="M 985.644531 382.820313 L 1025.773438 382.820313 L 1025.773438 342.691406 L 985.644531 342.691406 Z M 985.644531 382.820313 "/>
<path style="fill-rule:nonzero;fill:rgb(66.497803%,77.897644%,94.998169%);fill-opacity:1;stroke-width:1;stroke-linecap:square;stroke-linejoin:miter;stroke:rgb(66.497803%,77.897644%,94.998169%);stroke-opacity:1;stroke-miterlimit:3.239307;" d="M 985.644531 302.566406 L 1025.773438 302.566406 L 1025.773438 262.4375 L 985.644531 262.4375 Z M 985.644531 302.566406 "/>
<path style="fill-rule:nonzero;fill:rgb(66.497803%,77.897644%,94.998169%);fill-opacity:1;stroke-width:1;stroke-linecap:square;stroke-linejoin:miter;stroke:rgb(66.497803%,77.897644%,94.998169%);stroke-opacity:1;stroke-miterlimit:3.239307;" d="M 985.644531 142.054688 L 1025.773438 142.054688 L 1025.773438 101.925781 L 985.644531 101.925781 Z M 985.644531 142.054688 "/>
<path style="fill-rule:nonzero;fill:rgb(66.497803%,77.897644%,94.998169%);fill-opacity:1;stroke-width:1;stroke-linecap:square;stroke-linejoin:miter;stroke:rgb(66.497803%,77.897644%,94.998169%);stroke-opacity:1;stroke-miterlimit:3.239307;" d="M 985.644531 61.796875 L 1025.773438 61.796875 L 1025.773438 21.667969 L 985.644531 21.667969 Z M 985.644531 61.796875 "/>
<path style="fill-rule:nonzero;fill:rgb(66.497803%,77.897644%,94.998169%);fill-opacity:1;stroke-width:1;stroke-linecap:square;stroke-linejoin:miter;stroke:rgb(66.497803%,77.897644%,94.998169%);stroke-opacity:1;stroke-miterlimit:3.239307;" d="M 1065.898438 1105.125 L 1106.027344 1105.125 L 1106.027344 1064.996094 L 1065.898438 1064.996094 Z M 1065.898438 1105.125 "/>
<path style="fill-rule:nonzero;fill:rgb(66.497803%,77.897644%,94.998169%);fill-opacity:1;stroke-width:1;stroke-linecap:square;stroke-linejoin:miter;stroke:rgb(66.497803%,77.897644%,94.998169%);stroke-opacity:1;stroke-miterlimit:3.239307;" d="M 1065.898438 1024.867188 L 1106.027344 1024.867188 L 1106.027344 984.742188 L 1065.898438 984.742188 Z M 1065.898438 1024.867188 "/>
<path style="fill-rule:nonzero;fill:rgb(66.497803%,77.897644%,94.998169%);fill-opacity:1;stroke-width:1;stroke-linecap:square;stroke-linejoin:miter;stroke:rgb(66.497803%,77.897644%,94.998169%);stroke-opacity:1;stroke-miterlimit:3.239307;" d="M 1065.898438 864.355469 L 1106.027344 864.355469 L 1106.027344 824.230469 L 1065.898438 824.230469 Z M 1065.898438 864.355469 "/>
<path style="fill-rule:nonzero;fill:rgb(66.497803%,77.897644%,94.998169%);fill-opacity:1;stroke-width:1;stroke-linecap:square;stroke-linejoin:miter;stroke:rgb(66.497803%,77.897644%,94.998169%);stroke-opacity:1;stroke-miterlimit:3.239307;" d="M 1065.898438 784.101563 L 1106.027344 784.101563 L 1106.027344 743.972656 L 1065.898438 743.972656 Z M 1065.898438 784.101563 "/>
<path style="fill-rule:nonzero;fill:rgb(66.497803%,77.897644%,94.998169%);fill-opacity:1;stroke-width:1;stroke-linecap:square;stroke-linejoin:miter;stroke:rgb(66.497803%,77.897644%,94.998169%);stroke-opacity:1;stroke-miterlimit:3.239307;" d="M 1065.898438 382.820313 L 1106.027344 382.820313 L 1106.027344 342.691406 L 1065.898438 342.691406 Z M 1065.898438 382.820313 "/>
<path style="fill-rule:nonzero;fill:rgb(66.497803%,77.897644%,94.998169%);fill-opacity:1;stroke-width:1;stroke-linecap:square;stroke-linejoin:miter;stroke:rgb(66.497803%,77.897644%,94.998169%);stroke-opacity:1;stroke-miterlimit:3.239307;" d="M 1065.898438 302.566406 L 1106.027344 302.566406 L 1106.027344 262.4375 L 1065.898438 262.4375 Z M 1065.898438 302.566406 "/>
<path style="fill-rule:nonzero;fill:rgb(66.497803%,77.897644%,94.998169%);fill-opacity:1;stroke-width:1;stroke-linecap:square;stroke-linejoin:miter;stroke:rgb(66.497803%,77.897644%,94.998169%);stroke-opacity:1;stroke-miterlimit:3.239307;" d="M 1065.898438 142.054688 L 1106.027344 142.054688 L 1106.027344 101.925781 L 1065.898438 101.925781 Z M 1065.898438 142.054688 "/>
<path style="fill-rule:nonzero;fill:rgb(66.497803%,77.897644%,94.998169%);fill-opacity:1;stroke-width:1;stroke-linecap:square;stroke-linejoin:miter;stroke:rgb(66.497803%,77.897644%,94.998169%);stroke-opacity:1;stroke-miterlimit:3.239307;" d="M 1065.898438 61.796875 L 1106.027344 61.796875 L 1106.027344 21.667969 L 1065.898438 21.667969 Z M 1065.898438 61.796875 "/>
</g>
</svg>
