<?xml version="1.0" encoding="UTF-8"?>
<svg xmlns="http://www.w3.org/2000/svg" xmlns:xlink="http://www.w3.org/1999/xlink" width="450pt" height="450pt" viewBox="0 0 450 450" version="1.1">
<g id="surface32">
<path style="fill-rule:nonzero;fill:rgb(66.497803%,77.897644%,94.998169%);fill-opacity:1;stroke-width:1;stroke-linecap:square;stroke-linejoin:miter;stroke:rgb(66.497803%,77.897644%,94.998169%);stroke-opacity:1;stroke-miterlimit:3.239307;" d="M 9 440.640625 L 57 440.640625 L 57 392.640625 L 9 392.640625 Z M 9 440.640625 "/>
<path style="fill-rule:nonzero;fill:rgb(66.497803%,77.897644%,94.998169%);fill-opacity:1;stroke-width:1;stroke-linecap:square;stroke-linejoin:miter;stroke:rgb(66.497803%,77.897644%,94.998169%);stroke-opacity:1;stroke-miterlimit:3.239307;" d="M 9 344.640625 L 57 344.640625 L 57 296.640625 L 9 296.640625 Z M 9 344.640625 "/>
<path style="fill-rule:nonzero;fill:rgb(66.497803%,77.897644%,94.998169%);fill-opacity:1;stroke-width:1;stroke-linecap:square;stroke-linejoin:miter;stroke:rgb(66.497803%,77.897644%,94.998169%);stroke-opacity:1;stroke-miterlimit:3.239307;" d="M 9 152.640625 L 57 152.640625 L 57 104.640625 L 9 104.640625 Z M 9 152.640625 "/>
<path style="fill-rule:nonzero;fill:rgb(66.497803%,77.897644%,94.998169%);fill-opacity:1;stroke-width:1;stroke-linecap:square;stroke-linejoin:miter;stroke:rgb(66.497803%,77.897644%,94.998169%);stroke-opacity:1;stroke-miterlimit:3.239307;" d="M 9 56.640625 L 57 56.640625 L 57 8.640625 L 9 8.640625 Z M 9 56.640625 "/>
<path style="fill-rule:nonzero;fill:rgb(66.497803%,77.897644%,94.998169%);fill-opacity:1;stroke-width:1;stroke-linecap:square;stroke-linejoin:miter;stroke:rgb(66.497803%,77.897644%,94.998169%);stroke-opacity:1;stroke-miterlimit:3.239307;" d="M 105 440.640625 L 153 440.640625 L 153 392.640625 L 105 392.640625 Z M 105 440.640625 "/>
<path style="fill-rule:nonzero;fill:rgb(66.497803%,77.897644%,94.998169%);fill-opacity:1;stroke-width:1;stroke-linecap:square;stroke-linejoin:miter;stroke:rgb(66.497803%,77.897644%,94.998169%);stroke-opacity:1;stroke-miterlimit:3.239307;" d="M 105 344.640625 L 153 344.640625 L 153 296.640625 L 105 296.640625 Z M 105 344.640625 "/>
<path style="fill-rule:nonzero;fill:rgb(66.497803%,77.897644%,94.998169%);fill-opacity:1;stroke-width:1;stroke-linecap:square;stroke-linejoin:miter;stroke:rgb(66.497803%,77.897644%,94.998169%);stroke-opacity:1;stroke-miterlimit:3.239307;" d="M 105 152.640625 L 153 152.640625 L 153 104.640625 L 105 104.640625 Z M 105 152.640625 "/>
<path style="fill-rule:nonzero;fill:rgb(66.497803%,77.897644%,94.998169%);fill-opacity:1;stroke-width:1;stroke-linecap:square;stroke-linejoin:miter;stroke:rgb(66.497803%,77.897644%,94.998169%);stroke-opacity:1;stroke-miterlimit:3.239307;" d="M 105 56.640625 L 153 56.640625 L 153 8.640625 L 105 8.640625 Z M 105 56.640625 "/>
<path style="fill-rule:nonzero;fill:rgb(66.497803%,77.897644%,94.998169%);fill-opacity:1;stroke-width:1;stroke-linecap:square;stroke-linejoin:miter;stroke:rgb(66.497803%,77.897644%,94.998169%);stroke-opacity:1;stroke-miterlimit:3.239307;" d="M 297 440.640625 L 345 440.640625 L 345 392.640625 L 297 392.640625 Z M 297 440.640625 "/>
<path style="fill-rule:nonzero;fill:rgb(66.497803%,77.897644%,94.998169%);fill-opacity:1;stroke-width:1;stroke-linecap:square;stroke-linejoin:miter;stroke:rgb(66.497803%,77.897644%,94.998169%);stroke-opacity:1;stroke-miterlimit:3.239307;" d="M 297 344.640625 L 345 344.640625 L 345 296.640625 L 297 296.640625 Z M 297 344.640625 "/>
<path style="fill-rule:nonzero;fill:rgb(66.497803%,77.897644%,94.998169%);fill-opacity:1;stroke-width:1;stroke-linecap:square;stroke-linejoin:miter;stroke:rgb(66.497803%,77.897644%,94.998169%);stroke-opacity:1;stroke-miterlimit:3.239307;" d="M 297 152.640625 L 345 152.640625 L 345 104.640625 L 297 104.640625 Z M 297 152.640625 "/>
<path style="fill-rule:nonzero;fill:rgb(66.497803%,77.897644%,94.998169%);fill-opacity:1;stroke-width:1;stroke-linecap:square;stroke-linejoin:miter;stroke:rgb(66.497803%,77.897644%,94.998169%);stroke-opacity:1;stroke-miterlimit:3.239307;" d="M 297 56.640625 L 345 56.640625 L 345 8.640625 L 297 8.640625 Z M 297 56.640625 "/>
<path style="fill-rule:nonzero;fill:rgb(66.497803%,77.897644%,94.998169%);fill-opacity:1;stroke-width:1;stroke-linecap:square;stroke-linejoin:miter;stroke:rgb(66.497803%,77.897644%,94.998169%);stroke-opacity:1;stroke-miterlimit:3.239307;" d="M 393 440.640625 L 441 440.640625 L 441 392.640625 L 393 392.640625 Z M 393 440.640625 "/>
<path style="fill-rule:nonzero;fill:rgb(66.497803%,77.897644%,94.998169%);fill-opacity:1;stroke-width:1;stroke-linecap:square;stroke-linejoin:miter;stroke:rgb(66.497803%,77.897644%,94.998169%);stroke-opacity:1;stroke-miterlimit:3.239307;" d="M 393 344.640625 L 441 344.640625 L 441 296.640625 L 393 296.640625 Z M 393 344.640625 "/>
<path style="fill-rule:nonzero;fill:rgb(66.497803%,77.897644%,94.998169%);fill-opacity:1;stroke-width:1;stroke-linecap:square;stroke-linejoin:miter;stroke:rgb(66.497803%,77.897644%,94.998169%);stroke-opacity:1;stroke-miterlimit:3.239307;" d="M 393 152.640625 L 441 152.640625 L 441 104.640625 L 393 104.640625 Z M 393 152.640625 "/>
<path style="fill-rule:nonzero;fill:rgb(66.497803%,77.897644%,94.998169%);fill-opacity:1;stroke-width:1;stroke-linecap:square;stroke-linejoin:miter;stroke:rgb(66.497803%,77.897644%,94.998169%);stroke-opacity:1;stroke-miterlimit:3.239307;" d="M 393 56.640625 L 441 56.640625 L 441 8.640625 L 393 8.640625 Z M 393 56.640625 "/>
</g>
</svg>
