<?xml version="1.0" encoding="UTF-8"?>
<svg xmlns="http://www.w3.org/2000/svg" xmlns:xlink="http://www.w3.org/1999/xlink" width="1129pt" height="1127pt" viewBox="0 0 1129 1127" version="1.1">
<g id="surface202">
<path style="fill-rule:nonzero;fill:rgb(66.497803%,77.897644%,94.998169%);fill-opacity:1;stroke-width:1;stroke-linecap:square;stroke-linejoin:miter;stroke:rgb(66.497803%,77.897644%,94.998169%);stroke-opacity:1;stroke-miterlimit:3.239307;" d="M 22.570313 1105.125 L 142.957031 1105.125 L 142.957031 984.742188 L 22.570313 984.742188 Z M 22.570313 1105.125 "/>
<path style="fill-rule:nonzero;fill:rgb(66.497803%,77.897644%,94.998169%);fill-opacity:1;stroke-width:1;stroke-linecap:square;stroke-linejoin:miter;stroke:rgb(66.497803%,77.897644%,94.998169%);stroke-opacity:1;stroke-miterlimit:3.239307;" d="M 22.570313 864.355469 L 142.957031 864.355469 L 142.957031 743.972656 L 22.570313 743.972656 Z M 22.570313 864.355469 "/>
<path style="fill-rule:nonzero;fill:rgb(66.497803%,77.897644%,94.998169%);fill-opacity:1;stroke-width:1;stroke-linecap:square;stroke-linejoin:miter;stroke:rgb(66.497803%,77.897644%,94.998169%);stroke-opacity:1;stroke-miterlimit:3.239307;" d="M 22.570313 382.820313 L 142.957031 382.820313 L 142.957031 262.4375 L 22.570313 262.4375 Z M 22.570313 382.820313 "/>
<path style="fill-rule:nonzero;fill:rgb(66.497803%,77.897644%,94.998169%);fill-opacity:1;stroke-width:1;stroke-linecap:square;stroke-linejoin:miter;stroke:rgb(66.497803%,77.897644%,94.998169%);stroke-opacity:1;stroke-miterlimit:3.239307;" d="M 22.570313 142.054688 L 142.957031 142.054688 L 142.957031 21.667969 L 22.570313 21.667969 Z M 22.570313 142.054688 "/>
<path style="fill-rule:nonzero;fill:rgb(66.497803%,77.897644%,94.998169%);fill-opacity:1;stroke-width:1;stroke-linecap:square;stroke-linejoin:miter;stroke:rgb(66.497803%,77.897644%,94.998169%);stroke-opacity:1;stroke-miterlimit:3.239307;" d="M 263.339844 1105.125 L 383.722656 1105.125 L 383.722656 984.742188 L 263.339844 984.742188 Z M 263.339844 1105.125 "/>
<path style="fill-rule:nonzero;fill:rgb(66.497803%,77.897644%,94.998169%);fill-opacity:1;stroke-width:1;stroke-linecap:square;stroke-linejoin:miter;stroke:rgb(66.497803%,77.897644%,94.998169%);stroke-opacity:1;stroke-miterlimit:3.239307;" d="M 263.339844 864.355469 L 383.722656 864.355469 L 383.722656 743.972656 L 263.339844 743.972656 Z M 263.339844 864.355469 "/>
<path style="fill-rule:nonzero;fill:rgb(66.497803%,77.897644%,94.998169%);fill-opacity:1;stroke-width:1;stroke-linecap:square;stroke-linejoin:miter;stroke:rgb(66.497803%,77.897644%,94.998169%);stroke-opacity:1;stroke-miterlimit:3.239307;" d="M 263.339844 382.820313 L 383.722656 382.820313 L 383.722656 262.4375 L 263.339844 262.4375 Z M 263.339844 382.820313 "/>
<path style="fill-rule:nonzero;fill:rgb(66.497803%,77.897644%,94.998169%);fill-opacity:1;stroke-width:1;stroke-linecap:square;stroke-linejoin:miter;stroke:rgb(66.497803%,77.897644%,94.998169%);stroke-opacity:1;stroke-miterlimit:3.239307;" d="M 263.339844 142.054688 L 383.722656 142.054688 L 383.722656 21.667969 L 263.339844 21.667969 Z M 263.339844 142.054688 "/>
<path style="fill-rule:nonzero;fill:rgb(66.497803%,77.897644%,94.998169%);fill-opacity:1;stroke-width:1;stroke-linecap:square;stroke-linejoin:miter;stroke:rgb(66.497803%,77.897644%,94.998169%);stroke-opacity:1;stroke-miterlimit:3.239307;" d="M 744.875 1105.125 L 865.261719 1105.125 L 865.261719 984.742188 L 744.875 984.742188 Z M 744.875 1105.125 "/>
<path style="fill-rule:nonzero;fill:rgb(66.497803%,77.897644%,94.998169%);fill-opacity:1;stroke-width:1;stroke-linecap:square;stroke-linejoin:miter;stroke:rgb(66.497803%,77.897644%,94.998169%);stroke-opacity:1;stroke-miterlimit:3.239307;" d="M 744.875 864.355469 L 865.261719 864.355469 L 865.261719 743.972656 L 744.875 743.972656 Z M 744.875 864.355469 "/>
<path style="fill-rule:nonzero;fill:rgb(66.497803%,77.897644%,94.998169%);fill-opacity:1;stroke-width:1;stroke-linecap:square;stroke-linejoin:miter;stroke:rgb(66.497803%,77.897644%,94.998169%);stroke-opacity:1;stroke-miterlimit:3.239307;" d="M 744.875 382.820313 L 865.261719 382.820313 L 865.261719 262.4375 L 744.875 262.4375 Z M 744.875 382.820313 "/>
<path style="fill-rule:nonzero;fill:rgb(66.497803%,77.897644%,94.998169%);fill-opacity:1;stroke-width:1;stroke-linecap:square;stroke-linejoin:miter;stroke:rgb(66.497803%,77.897644%,94.998169%);stroke-opacity:1;stroke-miterlimit:3.239307;" d="M 744.875 142.054688 L 865.261719 142.054688 L 865.261719 21.667969 L 744.875 21.667969 Z M 744.875 142.054688 "/>
<path style="fill-rule:nonzero;fill:rgb(66.497803%,77.897644%,94.998169%);fill-opacity:1;stroke-width:1;stroke-linecap:square;stroke-linejoin:miter;stroke:rgb(66.497803%,77.897644%,94.998169%);stroke-opacity:1;stroke-miterlimit:3.239307;" d="M 985.644531 1105.125 L 1106.027344 1105.125 L 1106.027344 984.742188 L 985.644531 984.742188 Z M 985.644531 1105.125 "/>
<path style="fill-rule:nonzero;fill:rgb(66.497803%,77.897644%,94.998169%);fill-opacity:1;stroke-width:1;stroke-linecap:square;stroke-linejoin:miter;stroke:rgb(66.497803%,77.897644%,94.998169%);stroke-opacity:1;stroke-miterlimit:3.239307;" d="M 985.644531 864.355469 L 1106.027344 864.355469 L 1106.027344 743.972656 L 985.644531 743.972656 Z M 985.644531 864.355469 "/>
<path style="fill-rule:nonzero;fill:rgb(66.497803%,77.897644%,94.998169%);fill-opacity:1;stroke-width:1;stroke-linecap:square;stroke-linejoin:miter;stroke:rgb(66.497803%,77.897644%,94.998169%);stroke-opacity:1;stroke-miterlimit:3.239307;" d="M 985.644531 382.820313 L 1106.027344 382.820313 L 1106.027344 262.4375 L 985.644531 262.4375 Z M 985.644531 382.820313 "/>
<path style="fill-rule:nonzero;fill:rgb(66.497803%,77.897644%,94.998169%);fill-opacity:1;stroke-width:1;stroke-linecap:square;stroke-linejoin:miter;stroke:rgb(66.497803%,77.897644%,94.998169%);stroke-opacity:1;stroke-miterlimit:3.239307;" d="M 985.644531 142.054688 L 1106.027344 142.054688 L 1106.027344 21.667969 L 985.644531 21.667969 Z M 985.644531 142.054688 "/>
</g>
</svg>
