<?xml version="1.0" encoding="UTF-8"?>
<svg xmlns="http://www.w3.org/2000/svg" xmlns:xlink="http://www.w3.org/1999/xlink" width="450pt" height="450pt" viewBox="0 0 450 450" version="1.1">
<g id="surface37">
<path style="fill-rule:nonzero;fill:rgb(66.497803%,77.897644%,94.998169%);fill-opacity:1;stroke-width:1;stroke-linecap:square;stroke-linejoin:miter;stroke:rgb(66.497803%,77.897644%,94.998169%);stroke-opacity:1;stroke-miterlimit:3.239307;" d="M 9 440.640625 L 25 440.640625 L 25 424.640625 L 9 424.640625 Z M 9 440.640625 "/>
<path style="fill-rule:nonzero;fill:rgb(66.497803%,77.897644%,94.998169%);fill-opacity:1;stroke-width:1;stroke-linecap:square;stroke-linejoin:miter;stroke:rgb(66.497803%,77.897644%,94.998169%);stroke-opacity:1;stroke-miterlimit:3.239307;" d="M 9 408.640625 L 25 408.640625 L 25 392.640625 L 9 392.640625 Z M 9 408.640625 "/>
<path style="fill-rule:nonzero;fill:rgb(66.497803%,77.897644%,94.998169%);fill-opacity:1;stroke-width:1;stroke-linecap:square;stroke-linejoin:miter;stroke:rgb(66.497803%,77.897644%,94.998169%);stroke-opacity:1;stroke-miterlimit:3.239307;" d="M 9 344.640625 L 25 344.640625 L 25 328.640625 L 9 328.640625 Z M 9 344.640625 "/>
<path style="fill-rule:nonzero;fill:rgb(66.497803%,77.897644%,94.998169%);fill-opacity:1;stroke-width:1;stroke-linecap:square;stroke-linejoin:miter;stroke:rgb(66.497803%,77.897644%,94.998169%);stroke-opacity:1;stroke-miterlimit:3.239307;" d="M 9 312.640625 L 25 312.640625 L 25 296.640625 L 9 296.640625 Z M 9 312.640625 "/>
<path style="fill-rule:nonzero;fill:rgb(66.497803%,77.897644%,94.998169%);fill-opacity:1;stroke-width:1;stroke-linecap:square;stroke-linejoin:miter;stroke:rgb(66.497803%,77.897644%,94.998169%);stroke-opacity:1;stroke-miterlimit:3.239307;" d="M 9 152.640625 L 25 152.640625 L 25 136.640625 L 9 136.640625 Z M 9 152.640625 "/>
<path style="fill-rule:nonzero;fill:rgb(66.497803%,77.897644%,94.998169%);fill-opacity:1;stroke-width:1;stroke-linecap:square;stroke-linejoin:miter;stroke:rgb(66.497803%,77.897644%,94.998169%);stroke-opacity:1;stroke-miterlimit:3.239307;" d="M 9 120.640625 L 25 120.640625 L 25 104.640625 L 9 104.640625 Z M 9 120.640625 "/>
<path style="fill-rule:nonzero;fill:rgb(66.497803%,77.897644%,94.998169%);fill-opacity:1;stroke-width:1;stroke-linecap:square;stroke-linejoin:miter;stroke:rgb(66.497803%,77.897644%,94.998169%);stroke-opacity:1;stroke-miterlimit:3.239307;" d="M 9 56.640625 L 25 56.640625 L 25 40.640625 L 9 40.640625 Z M 9 56.640625 "/>
<path style="fill-rule:nonzero;fill:rgb(66.497803%,77.897644%,94.998169%);fill-opacity:1;stroke-width:1;stroke-linecap:square;stroke-linejoin:miter;stroke:rgb(66.497803%,77.897644%,94.998169%);stroke-opacity:1;stroke-miterlimit:3.239307;" d="M 9 24.640625 L 25 24.640625 L 25 8.640625 L 9 8.640625 Z M 9 24.640625 "/>
<path style="fill-rule:nonzero;fill:rgb(66.497803%,77.897644%,94.998169%);fill-opacity:1;stroke-width:1;stroke-linecap:square;stroke-linejoin:miter;stroke:rgb(66.497803%,77.897644%,94.998169%);stroke-opacity:1;stroke-miterlimit:3.239307;" d="M 41 440.640625 L 57 440.640625 L 57 424.640625 L 41 424.640625 Z M 41 440.640625 "/>
<path style="fill-rule:nonzero;fill:rgb(66.497803%,77.897644%,94.998169%);fill-opacity:1;stroke-width:1;stroke-linecap:square;stroke-linejoin:miter;stroke:rgb(66.497803%,77.897644%,94.998169%);stroke-opacity:1;stroke-miterlimit:3.239307;" d="M 41 408.640625 L 57 408.640625 L 57 392.640625 L 41 392.640625 Z M 41 408.640625 "/>
<path style="fill-rule:nonzero;fill:rgb(66.497803%,77.897644%,94.998169%);fill-opacity:1;stroke-width:1;stroke-linecap:square;stroke-linejoin:miter;stroke:rgb(66.497803%,77.897644%,94.998169%);stroke-opacity:1;stroke-miterlimit:3.239307;" d="M 41 344.640625 L 57 344.640625 L 57 328.640625 L 41 328.640625 Z M 41 344.640625 "/>
<path style="fill-rule:nonzero;fill:rgb(66.497803%,77.897644%,94.998169%);fill-opacity:1;stroke-width:1;stroke-linecap:square;stroke-linejoin:miter;stroke:rgb(66.497803%,77.897644%,94.998169%);stroke-opacity:1;stroke-miterlimit:3.239307;" d="M 41 312.640625 L 57 312.640625 L 57 296.640625 L 41 296.640625 Z M 41 312.640625 "/>
<path style="fill-rule:nonzero;fill:rgb(66.497803%,77.897644%,94.998169%);fill-opacity:1;stroke-width:1;stroke-linecap:square;stroke-linejoin:miter;stroke:rgb(66.497803%,77.897644%,94.998169%);stroke-opacity:1;stroke-miterlimit:3.239307;" d="M 41 152.640625 L 57 152.640625 L 57 136.640625 L 41 136.640625 Z M 41 152.640625 "/>
<path style="fill-rule:nonzero;fill:rgb(66.497803%,77.897644%,94.998169%);fill-opacity:1;stroke-width:1;stroke-linecap:square;stroke-linejoin:miter;stroke:rgb(66.497803%,77.897644%,94.998169%);stroke-opacity:1;stroke-miterlimit:3.239307;" d="M 41 120.640625 L 57 120.640625 L 57 104.640625 L 41 104.640625 Z M 41 120.640625 "/>
<path style="fill-rule:nonzero;fill:rgb(66.497803%,77.897644%,94.998169%);fill-opacity:1;stroke-width:1;stroke-linecap:square;stroke-linejoin:miter;stroke:rgb(66.497803%,77.897644%,94.998169%);stroke-opacity:1;stroke-miterlimit:3.239307;" d="M 41 56.640625 L 57 56.640625 L 57 40.640625 L 41 40.640625 Z M 41 56.640625 "/>
<path style="fill-rule:nonzero;fill:rgb(66.497803%,77.897644%,94.998169%);fill-opacity:1;stroke-width:1;stroke-linecap:square;stroke-linejoin:miter;stroke:rgb(66.497803%,77.897644%,94.998169%);stroke-opacity:1;stroke-miterlimit:3.239307;" d="M 41 24.640625 L 57 24.640625 L 57 8.640625 L 41 8.640625 Z M 41 24.640625 "/>
<path style="fill-rule:nonzero;fill:rgb(66.497803%,77.897644%,94.998169%);fill-opacity:1;stroke-width:1;stroke-linecap:square;stroke-linejoin:miter;stroke:rgb(66.497803%,77.897644%,94.998169%);stroke-opacity:1;stroke-miterlimit:3.239307;" d="M 105 440.640625 L 121 440.640625 L 121 424.640625 L 105 424.640625 Z M 105 440.640625 "/>
<path style="fill-rule:nonzero;fill:rgb(66.497803%,77.897644%,94.998169%);fill-opacity:1;stroke-width:1;stroke-linecap:square;stroke-linejoin:miter;stroke:rgb(66.497803%,77.897644%,94.998169%);stroke-opacity:1;stroke-miterlimit:3.239307;" d="M 105 408.640625 L 121 408.640625 L 121 392.640625 L 105 392.640625 Z M 105 408.640625 "/>
<path style="fill-rule:nonzero;fill:rgb(66.497803%,77.897644%,94.998169%);fill-opacity:1;stroke-width:1;stroke-linecap:square;stroke-linejoin:miter;stroke:rgb(66.497803%,77.897644%,94.998169%);stroke-opacity:1;stroke-miterlimit:3.239307;" d="M 105 344.640625 L 121 344.640625 L 121 328.640625 L 105 328.640625 Z M 105 344.640625 "/>
<path style="fill-rule:nonzero;fill:rgb(66.497803%,77.897644%,94.998169%);fill-opacity:1;stroke-width:1;stroke-linecap:square;stroke-linejoin:miter;stroke:rgb(66.497803%,77.897644%,94.998169%);stroke-opacity:1;stroke-miterlimit:3.239307;" d="M 105 312.640625 L 121 312.640625 L 121 296.640625 L 105 296.640625 Z M 105 312.640625 "/>
<path style="fill-rule:nonzero;fill:rgb(66.497803%,77.897644%,94.998169%);fill-opacity:1;stroke-width:1;stroke-linecap:square;stroke-linejoin:miter;stroke:rgb(66.497803%,77.897644%,94.998169%);stroke-opacity:1;stroke-miterlimit:3.239307;" d="M 105 152.640625 L 121 152.640625 L 121 136.640625 L 105 136.640625 Z M 105 152.640625 "/>
<path style="fill-rule:nonzero;fill:rgb(66.497803%,77.897644%,94.998169%);fill-opacity:1;stroke-width:1;stroke-linecap:square;stroke-linejoin:miter;stroke:rgb(66.497803%,77.897644%,94.998169%);stroke-opacity:1;stroke-miterlimit:3.239307;" d="M 105 120.640625 L 121 120.640625 L 121 104.640625 L 105 104.640625 Z M 105 120.640625 "/>
<path style="fill-rule:nonzero;fill:rgb(66.497803%,77.897644%,94.998169%);fill-opacity:1;stroke-width:1;stroke-linecap:square;stroke-linejoin:miter;stroke:rgb(66.497803%,77.897644%,94.998169%);stroke-opacity:1;stroke-miterlimit:3.239307;" d="M 105 56.640625 L 121 56.640625 L 121 40.640625 L 105 40.640625 Z M 105 56.640625 "/>
<path style="fill-rule:nonzero;fill:rgb(66.497803%,77.897644%,94.998169%);fill-opacity:1;stroke-width:1;stroke-linecap:square;stroke-linejoin:miter;stroke:rgb(66.497803%,77.897644%,94.998169%);stroke-opacity:1;stroke-miterlimit:3.239307;" d="M 105 24.640625 L 121 24.640625 L 121 8.640625 L 105 8.640625 Z M 105 24.640625 "/>
<path style="fill-rule:nonzero;fill:rgb(66.497803%,77.897644%,94.998169%);fill-opacity:1;stroke-width:1;stroke-linecap:square;stroke-linejoin:miter;stroke:rgb(66.497803%,77.897644%,94.998169%);stroke-opacity:1;stroke-miterlimit:3.239307;" d="M 137 440.640625 L 153 440.640625 L 153 424.640625 L 137 424.640625 Z M 137 440.640625 "/>
<path style="fill-rule:nonzero;fill:rgb(66.497803%,77.897644%,94.998169%);fill-opacity:1;stroke-width:1;stroke-linecap:square;stroke-linejoin:miter;stroke:rgb(66.497803%,77.897644%,94.998169%);stroke-opacity:1;stroke-miterlimit:3.239307;" d="M 137 408.640625 L 153 408.640625 L 153 392.640625 L 137 392.640625 Z M 137 408.640625 "/>
<path style="fill-rule:nonzero;fill:rgb(66.497803%,77.897644%,94.998169%);fill-opacity:1;stroke-width:1;stroke-linecap:square;stroke-linejoin:miter;stroke:rgb(66.497803%,77.897644%,94.998169%);stroke-opacity:1;stroke-miterlimit:3.239307;" d="M 137 344.640625 L 153 344.640625 L 153 328.640625 L 137 328.640625 Z M 137 344.640625 "/>
<path style="fill-rule:nonzero;fill:rgb(66.497803%,77.897644%,94.998169%);fill-opacity:1;stroke-width:1;stroke-linecap:square;stroke-linejoin:miter;stroke:rgb(66.497803%,77.897644%,94.998169%);stroke-opacity:1;stroke-miterlimit:3.239307;" d="M 137 312.640625 L 153 312.640625 L 153 296.640625 L 137 296.640625 Z M 137 312.640625 "/>
<path style="fill-rule:nonzero;fill:rgb(66.497803%,77.897644%,94.998169%);fill-opacity:1;stroke-width:1;stroke-linecap:square;stroke-linejoin:miter;stroke:rgb(66.497803%,77.897644%,94.998169%);stroke-opacity:1;stroke-miterlimit:3.239307;" d="M 137 152.640625 L 153 152.640625 L 153 136.640625 L 137 136.640625 Z M 137 152.640625 "/>
<path style="fill-rule:nonzero;fill:rgb(66.497803%,77.897644%,94.998169%);fill-opacity:1;stroke-width:1;stroke-linecap:square;stroke-linejoin:miter;stroke:rgb(66.497803%,77.897644%,94.998169%);stroke-opacity:1;stroke-miterlimit:3.239307;" d="M 137 120.640625 L 153 120.640625 L 153 104.640625 L 137 104.640625 Z M 137 120.640625 "/>
<path style="fill-rule:nonzero;fill:rgb(66.497803%,77.897644%,94.998169%);fill-opacity:1;stroke-width:1;stroke-linecap:square;stroke-linejoin:miter;stroke:rgb(66.497803%,77.897644%,94.998169%);stroke-opacity:1;stroke-miterlimit:3.239307;" d="M 137 56.640625 L 153 56.640625 L 153 40.640625 L 137 40.640625 Z M 137 56.640625 "/>
<path style="fill-rule:nonzero;fill:rgb(66.497803%,77.897644%,94.998169%);fill-opacity:1;stroke-width:1;stroke-linecap:square;stroke-linejoin:miter;stroke:rgb(66.497803%,77.897644%,94.998169%);stroke-opacity:1;stroke-miterlimit:3.239307;" d="M 137 24.640625 L 153 24.640625 L 153 8.640625 L 137 8.640625 Z M 137 24.640625 "/>
<path style="fill-rule:nonzero;fill:rgb(66.497803%,77.897644%,94.998169%);fill-opacity:1;stroke-width:1;stroke-linecap:square;stroke-linejoin:miter;stroke:rgb(66.497803%,77.897644%,94.998169%);stroke-opacity:1;stroke-miterlimit:3.239307;" d="M 297 440.640625 L 313 440.640625 L 313 424.640625 L 297 424.640625 Z M 297 440.640625 "/>
<path style="fill-rule:nonzero;fill:rgb(66.497803%,77.897644%,94.998169%);fill-opacity:1;stroke-width:1;stroke-linecap:square;stroke-linejoin:miter;stroke:rgb(66.497803%,77.897644%,94.998169%);stroke-opacity:1;stroke-miterlimit:3.239307;" d="M 297 408.640625 L 313 408.640625 L 313 392.640625 L 297 392.640625 Z M 297 408.640625 "/>
<path style="fill-rule:nonzero;fill:rgb(66.497803%,77.897644%,94.998169%);fill-opacity:1;stroke-width:1;stroke-linecap:square;stroke-linejoin:miter;stroke:rgb(66.497803%,77.897644%,94.998169%);stroke-opacity:1;stroke-miterlimit:3.239307;" d="M 297 344.640625 L 313 344.640625 L 313 328.640625 L 297 328.640625 Z M 297 344.640625 "/>
<path style="fill-rule:nonzero;fill:rgb(66.497803%,77.897644%,94.998169%);fill-opacity:1;stroke-width:1;stroke-linecap:square;stroke-linejoin:miter;stroke:rgb(66.497803%,77.897644%,94.998169%);stroke-opacity:1;stroke-miterlimit:3.239307;" d="M 297 312.640625 L 313 312.640625 L 313 296.640625 L 297 296.640625 Z M 297 312.640625 "/>
<path style="fill-rule:nonzero;fill:rgb(66.497803%,77.897644%,94.998169%);fill-opacity:1;stroke-width:1;stroke-linecap:square;stroke-linejoin:miter;stroke:rgb(66.497803%,77.897644%,94.998169%);stroke-opacity:1;stroke-miterlimit:3.239307;" d="M 297 152.640625 L 313 152.640625 L 313 136.640625 L 297 136.640625 Z M 297 152.640625 "/>
<path style="fill-rule:nonzero;fill:rgb(66.497803%,77.897644%,94.998169%);fill-opacity:1;stroke-width:1;stroke-linecap:square;stroke-linejoin:miter;stroke:rgb(66.497803%,77.897644%,94.998169%);stroke-opacity:1;stroke-miterlimit:3.239307;" d="M 297 120.640625 L 313 120.640625 L 313 104.640625 L 297 104.640625 Z M 297 120.640625 "/>
<path style="fill-rule:nonzero;fill:rgb(66.497803%,77.897644%,94.998169%);fill-opacity:1;stroke-width:1;stroke-linecap:square;stroke-linejoin:miter;stroke:rgb(66.497803%,77.897644%,94.998169%);stroke-opacity:1;stroke-miterlimit:3.239307;" d="M 297 56.640625 L 313 56.640625 L 313 40.640625 L 297 40.640625 Z M 297 56.640625 "/>
<path style="fill-rule:nonzero;fill:rgb(66.497803%,77.897644%,94.998169%);fill-opacity:1;stroke-width:1;stroke-linecap:square;stroke-linejoin:miter;stroke:rgb(66.497803%,77.897644%,94.998169%);stroke-opacity:1;stroke-miterlimit:3.239307;" d="M 297 24.640625 L 313 24.640625 L 313 8.640625 L 297 8.640625 Z M 297 24.640625 "/>
<path style="fill-rule:nonzero;fill:rgb(66.497803%,77.897644%,94.998169%);fill-opacity:1;stroke-width:1;stroke-linecap:square;stroke-linejoin:miter;stroke:rgb(66.497803%,77.897644%,94.998169%);stroke-opacity:1;stroke-miterlimit:3.239307;" d="M 329 440.640625 L 345 440.640625 L 345 424.640625 L 329 424.640625 Z M 329 440.640625 "/>
<path style="fill-rule:nonzero;fill:rgb(66.497803%,77.897644%,94.998169%);fill-opacity:1;stroke-width:1;stroke-linecap:square;stroke-linejoin:miter;stroke:rgb(66.497803%,77.897644%,94.998169%);stroke-opacity:1;stroke-miterlimit:3.239307;" d="M 329 408.640625 L 345 408.640625 L 345 392.640625 L 329 392.640625 Z M 329 408.640625 "/>
<path style="fill-rule:nonzero;fill:rgb(66.497803%,77.897644%,94.998169%);fill-opacity:1;stroke-width:1;stroke-linecap:square;stroke-linejoin:miter;stroke:rgb(66.497803%,77.897644%,94.998169%);stroke-opacity:1;stroke-miterlimit:3.239307;" d="M 329 344.640625 L 345 344.640625 L 345 328.640625 L 329 328.640625 Z M 329 344.640625 "/>
<path style="fill-rule:nonzero;fill:rgb(66.497803%,77.897644%,94.998169%);fill-opacity:1;stroke-width:1;stroke-linecap:square;stroke-linejoin:miter;stroke:rgb(66.497803%,77.897644%,94.998169%);stroke-opacity:1;stroke-miterlimit:3.239307;" d="M 329 312.640625 L 345 312.640625 L 345 296.640625 L 329 296.640625 Z M 329 312.640625 "/>
<path style="fill-rule:nonzero;fill:rgb(66.497803%,77.897644%,94.998169%);fill-opacity:1;stroke-width:1;stroke-linecap:square;stroke-linejoin:miter;stroke:rgb(66.497803%,77.897644%,94.998169%);stroke-opacity:1;stroke-miterlimit:3.239307;" d="M 329 152.640625 L 345 152.640625 L 345 136.640625 L 329 136.640625 Z M 329 152.640625 "/>
<path style="fill-rule:nonzero;fill:rgb(66.497803%,77.897644%,94.998169%);fill-opacity:1;stroke-width:1;stroke-linecap:square;stroke-linejoin:miter;stroke:rgb(66.497803%,77.897644%,94.998169%);stroke-opacity:1;stroke-miterlimit:3.239307;" d="M 329 120.640625 L 345 120.640625 L 345 104.640625 L 329 104.640625 Z M 329 120.640625 "/>
<path style="fill-rule:nonzero;fill:rgb(66.497803%,77.897644%,94.998169%);fill-opacity:1;stroke-width:1;stroke-linecap:square;stroke-linejoin:miter;stroke:rgb(66.497803%,77.897644%,94.998169%);stroke-opacity:1;stroke-miterlimit:3.239307;" d="M 329 56.640625 L 345 56.640625 L 345 40.640625 L 329 40.640625 Z M 329 56.640625 "/>
<path style="fill-rule:nonzero;fill:rgb(66.497803%,77.897644%,94.998169%);fill-opacity:1;stroke-width:1;stroke-linecap:square;stroke-linejoin:miter;stroke:rgb(66.497803%,77.897644%,94.998169%);stroke-opacity:1;stroke-miterlimit:3.239307;" d="M 329 24.640625 L 345 24.640625 L 345 8.640625 L 329 8.640625 Z M 329 24.640625 "/>
<path style="fill-rule:nonzero;fill:rgb(66.497803%,77.897644%,94.998169%);fill-opacity:1;stroke-width:1;stroke-linecap:square;stroke-linejoin:miter;stroke:rgb(66.497803%,77.897644%,94.998169%);stroke-opacity:1;stroke-miterlimit:3.239307;" d="M 393 440.640625 L 409 440.640625 L 409 424.640625 L 393 424.640625 Z M 393 440.640625 "/>
<path style="fill-rule:nonzero;fill:rgb(66.497803%,77.897644%,94.998169%);fill-opacity:1;stroke-width:1;stroke-linecap:square;stroke-linejoin:miter;stroke:rgb(66.497803%,77.897644%,94.998169%);stroke-opacity:1;stroke-miterlimit:3.239307;" d="M 393 408.640625 L 409 408.640625 L 409 392.640625 L 393 392.640625 Z M 393 408.640625 "/>
<path style="fill-rule:nonzero;fill:rgb(66.497803%,77.897644%,94.998169%);fill-opacity:1;stroke-width:1;stroke-linecap:square;stroke-linejoin:miter;stroke:rgb(66.497803%,77.897644%,94.998169%);stroke-opacity:1;stroke-miterlimit:3.239307;" d="M 393 344.640625 L 409 344.640625 L 409 328.640625 L 393 328.640625 Z M 393 344.640625 "/>
<path style="fill-rule:nonzero;fill:rgb(66.497803%,77.897644%,94.998169%);fill-opacity:1;stroke-width:1;stroke-linecap:square;stroke-linejoin:miter;stroke:rgb(66.497803%,77.897644%,94.998169%);stroke-opacity:1;stroke-miterlimit:3.239307;" d="M 393 312.640625 L 409 312.640625 L 409 296.640625 L 393 296.640625 Z M 393 312.640625 "/>
<path style="fill-rule:nonzero;fill:rgb(66.497803%,77.897644%,94.998169%);fill-opacity:1;stroke-width:1;stroke-linecap:square;stroke-linejoin:miter;stroke:rgb(66.497803%,77.897644%,94.998169%);stroke-opacity:1;stroke-miterlimit:3.239307;" d="M 393 152.640625 L 409 152.640625 L 409 136.640625 L 393 136.640625 Z M 393 152.640625 "/>
<path style="fill-rule:nonzero;fill:rgb(66.497803%,77.897644%,94.998169%);fill-opacity:1;stroke-width:1;stroke-linecap:square;stroke-linejoin:miter;stroke:rgb(66.497803%,77.897644%,94.998169%);stroke-opacity:1;stroke-miterlimit:3.239307;" d="M 393 120.640625 L 409 120.640625 L 409 104.640625 L 393 104.640625 Z M 393 120.640625 "/>
<path style="fill-rule:nonzero;fill:rgb(66.497803%,77.897644%,94.998169%);fill-opacity:1;stroke-width:1;stroke-linecap:square;stroke-linejoin:miter;stroke:rgb(66.497803%,77.897644%,94.998169%);stroke-opacity:1;stroke-miterlimit:3.239307;" d="M 393 56.640625 L 409 56.640625 L 409 40.640625 L 393 40.640625 Z M 393 56.640625 "/>
<path style="fill-rule:nonzero;fill:rgb(66.497803%,77.897644%,94.998169%);fill-opacity:1;stroke-width:1;stroke-linecap:square;stroke-linejoin:miter;stroke:rgb(66.497803%,77.897644%,94.998169%);stroke-opacity:1;stroke-miterlimit:3.239307;" d="M 393 24.640625 L 409 24.640625 L 409 8.640625 L 393 8.640625 Z M 393 24.640625 "/>
<path style="fill-rule:nonzero;fill:rgb(66.497803%,77.897644%,94.998169%);fill-opacity:1;stroke-width:1;stroke-linecap:square;stroke-linejoin:miter;stroke:rgb(66.497803%,77.897644%,94.998169%);stroke-opacity:1;stroke-miterlimit:3.239307;" d="M 425 440.640625 L 441 440.640625 L 441 424.640625 L 425 424.640625 Z M 425 440.640625 "/>
<path style="fill-rule:nonzero;fill:rgb(66.497803%,77.897644%,94.998169%);fill-opacity:1;stroke-width:1;stroke-linecap:square;stroke-linejoin:miter;stroke:rgb(66.497803%,77.897644%,94.998169%);stroke-opacity:1;stroke-miterlimit:3.239307;" d="M 425 408.640625 L 441 408.640625 L 441 392.640625 L 425 392.640625 Z M 425 408.640625 "/>
<path style="fill-rule:nonzero;fill:rgb(66.497803%,77.897644%,94.998169%);fill-opacity:1;stroke-width:1;stroke-linecap:square;stroke-linejoin:miter;stroke:rgb(66.497803%,77.897644%,94.998169%);stroke-opacity:1;stroke-miterlimit:3.239307;" d="M 425 344.640625 L 441 344.640625 L 441 328.640625 L 425 328.640625 Z M 425 344.640625 "/>
<path style="fill-rule:nonzero;fill:rgb(66.497803%,77.897644%,94.998169%);fill-opacity:1;stroke-width:1;stroke-linecap:square;stroke-linejoin:miter;stroke:rgb(66.497803%,77.897644%,94.998169%);stroke-opacity:1;stroke-miterlimit:3.239307;" d="M 425 312.640625 L 441 312.640625 L 441 296.640625 L 425 296.640625 Z M 425 312.640625 "/>
<path style="fill-rule:nonzero;fill:rgb(66.497803%,77.897644%,94.998169%);fill-opacity:1;stroke-width:1;stroke-linecap:square;stroke-linejoin:miter;stroke:rgb(66.497803%,77.897644%,94.998169%);stroke-opacity:1;stroke-miterlimit:3.239307;" d="M 425 152.640625 L 441 152.640625 L 441 136.640625 L 425 136.640625 Z M 425 152.640625 "/>
<path style="fill-rule:nonzero;fill:rgb(66.497803%,77.897644%,94.998169%);fill-opacity:1;stroke-width:1;stroke-linecap:square;stroke-linejoin:miter;stroke:rgb(66.497803%,77.897644%,94.998169%);stroke-opacity:1;stroke-miterlimit:3.239307;" d="M 425 120.640625 L 441 120.640625 L 441 104.640625 L 425 104.640625 Z M 425 120.640625 "/>
<path style="fill-rule:nonzero;fill:rgb(66.497803%,77.897644%,94.998169%);fill-opacity:1;stroke-width:1;stroke-linecap:square;stroke-linejoin:miter;stroke:rgb(66.497803%,77.897644%,94.998169%);stroke-opacity:1;stroke-miterlimit:3.239307;" d="M 425 56.640625 L 441 56.640625 L 441 40.640625 L 425 40.640625 Z M 425 56.640625 "/>
<path style="fill-rule:nonzero;fill:rgb(66.497803%,77.897644%,94.998169%);fill-opacity:1;stroke-width:1;stroke-linecap:square;stroke-linejoin:miter;stroke:rgb(66.497803%,77.897644%,94.998169%);stroke-opacity:1;stroke-miterlimit:3.239307;" d="M 425 24.640625 L 441 24.640625 L 441 8.640625 L 425 8.640625 Z M 425 24.640625 "/>
</g>
</svg>
